# xmcd
#
# Track frame offsets:
#	150
#	14784
#	29088
#	46384
#	58264
#	70948
#	86596
#	103285
#	117892
#	141589
#	158492
#	173384
#	189221
#	207695
#	226395
#
# Disc length: 3298 seconds
#
# Revision: 0
# Processed by: cddbd v1.5.2PL0 Copyright (c) Steve Scherf et al.
# Submitted via: audiograbber 1.81.02
#
DISCID=da0ce00f
DTITLE=Toby Keith - Clancy's Tavern (Deluxe Edition)
DYEAR=2011
DGENRE=Country
TTITLE0=Toby Keith - Made In America
TTITLE1=Toby Keith - I Need to Hear a Country Song
TTITLE2=Toby Keith - Clancy's Tavern
TTITLE3=Toby Keith - Tryin' to Fall In Love
TTITLE4=Toby Keith - Just Another Sundown
TTITLE5=Toby Keith - Beers Ago
TTITLE6=Toby Keith - South of You
TTITLE7=Toby Keith - Club Zydeco Moon
TTITLE8=Toby Keith - I Won't Let You Down
TTITLE9=Toby Keith - Red Solo Cup
TTITLE10=Toby Keith - Chill-Axin'
TTITLE11=Toby Keith - High Time (You Quit Your Lowdown Ways) [Live]
TTITLE12=Toby Keith - Truck Drivin' Man
TTITLE13=Toby Keith - Shambala
TTITLE14=Toby Keith - Memphis
EXTD=
EXTT0=
EXTT1=
EXTT2=
EXTT3=
EXTT4=
EXTT5=
EXTT6=
EXTT7=
EXTT8=
EXTT9=
EXTT10=
EXTT11=
EXTT12=
EXTT13=
EXTT14=
PLAYORDER=
